<?xml version="1.0" standalone="no"?>
<!DOCTYPE svg PUBLIC "-//W3C//DTD SVG 20010904//EN"
 "http://www.w3.org/TR/2001/REC-SVG-20010904/DTD/svg10.dtd">
<svg version="1.0" xmlns="http://www.w3.org/2000/svg"
 width="2480.000000pt" height="3508.000000pt" viewBox="0 0 2480.000000 3508.000000"
 preserveAspectRatio="xMidYMid meet">

<g transform="translate(0.000000,3508.000000) scale(0.100000,-0.100000)"
fill="#000000" stroke="none">
<path d="M5150 19750 c0 -33 -3 -40 -20 -40 -18 0 -20 -7 -20 -85 0 -78 -2
-85 -20 -85 -18 0 -20 -7 -20 -85 0 -78 -2 -85 -20 -85 -18 0 -20 -7 -20 -80
0 -79 0 -80 -25 -80 -25 0 -25 -1 -25 -85 0 -78 -2 -85 -20 -85 -18 0 -20 -7
-20 -85 0 -78 -2 -85 -20 -85 -18 0 -20 -7 -20 -80 0 -73 -2 -80 -20 -80 -18
0 -20 -7 -20 -85 0 -78 -2 -85 -20 -85 -18 0 -20 -7 -20 -85 0 -78 -2 -85 -20
-85 -18 0 -20 -7 -20 -80 0 -79 0 -80 -25 -80 -25 0 -25 -1 -25 -85 0 -78 -2
-85 -20 -85 -18 0 -20 -7 -20 -85 0 -78 -2 -85 -20 -85 -17 0 -20 -7 -20 -40
0 -33 3 -40 20 -40 13 0 20 -7 20 -20 0 -18 7 -20 85 -20 78 0 85 -2 85 -20 0
-17 7 -20 40 -20 33 0 40 3 40 20 0 13 7 20 20 20 18 0 20 7 20 80 0 79 0 80
25 80 25 0 25 1 25 85 0 78 2 85 20 85 18 0 20 7 20 85 0 78 2 85 20 85 18 0
20 7 20 80 0 73 2 80 20 80 19 0 20 7 20 105 0 98 1 105 20 105 18 0 20 7 20
65 0 58 2 65 20 65 18 0 20 7 20 80 0 79 0 80 25 80 25 0 25 1 25 85 0 78 2
85 20 85 19 0 20 7 20 105 0 98 1 105 20 105 18 0 20 7 20 60 0 53 2 60 20 60
19 0 20 7 20 105 0 98 1 105 20 105 18 0 20 7 20 65 l0 65 -105 0 c-98 0 -105
1 -105 20 0 17 -7 20 -40 20 l-40 0 0 -40z"/>
<path d="M5530 19645 c0 -63 -1 -65 -25 -65 -25 0 -25 -1 -25 -85 0 -78 -2
-85 -20 -85 -18 0 -20 -7 -20 -80 0 -73 -2 -80 -20 -80 -18 0 -20 -7 -20 -85
0 -78 -2 -85 -20 -85 -18 0 -20 -7 -20 -85 0 -78 -2 -85 -20 -85 -18 0 -20 -7
-20 -80 0 -73 -2 -80 -20 -80 -18 0 -20 -7 -20 -85 0 -84 0 -85 -25 -85 l-25
0 0 -105 c0 -98 -1 -105 -20 -105 -18 0 -20 -7 -20 -60 0 -53 -2 -60 -20 -60
-18 0 -20 -7 -20 -85 0 -78 -2 -85 -20 -85 -18 0 -20 -7 -20 -85 0 -78 -2 -85
-20 -85 -18 0 -20 -7 -20 -80 0 -73 -2 -80 -20 -80 -13 0 -20 -7 -20 -20 0
-17 7 -20 40 -20 36 0 40 -2 40 -25 l0 -25 125 0 125 0 0 65 c0 58 2 65 20 65
18 0 20 7 20 85 0 78 2 85 20 85 18 0 20 7 20 80 0 73 2 80 20 80 19 0 20 7
20 105 l0 105 25 0 c25 0 25 1 25 85 0 78 2 85 20 85 18 0 20 7 20 80 0 73 2
80 20 80 18 0 20 7 20 85 0 78 2 85 20 85 18 0 20 7 20 85 0 78 2 85 20 85 18
0 20 7 20 60 0 53 2 60 20 60 19 0 20 -7 20 -125 l0 -125 25 0 25 0 0 -205 c0
-198 1 -205 20 -205 20 0 20 -7 20 -355 0 -348 0 -355 20 -355 18 0 20 -7 20
-85 l0 -85 40 0 c33 0 40 -3 40 -20 0 -19 7 -20 105 -20 98 0 105 1 105 20 0
13 7 20 20 20 17 0 20 7 20 40 0 33 3 40 20 40 17 0 20 7 20 45 0 41 2 45 25
45 18 0 25 5 25 20 0 13 7 20 20 20 17 0 20 7 20 40 0 33 3 40 20 40 17 0 20
7 20 45 0 38 3 45 20 45 13 0 20 7 20 20 0 13 7 20 20 20 17 0 20 7 20 40 0
33 3 40 20 40 13 0 20 7 20 20 0 15 7 20 25 20 23 0 25 4 25 45 0 38 3 45 20
45 17 0 20 7 20 40 0 33 3 40 20 40 13 0 20 7 20 20 0 13 7 20 20 20 17 0 20
7 20 40 0 33 3 40 20 40 17 0 20 7 20 45 0 38 3 45 20 45 13 0 20 7 20 20 0
15 7 20 25 20 23 0 25 4 25 40 0 33 3 40 20 40 17 0 20 7 20 45 0 38 3 45 20
45 13 0 20 7 20 20 0 13 7 20 20 20 17 0 20 7 20 40 0 33 3 40 20 40 17 0 20
7 20 40 0 33 3 40 20 40 18 0 20 -7 20 -80 0 -73 -2 -80 -20 -80 -18 0 -20 -7
-20 -85 0 -78 -2 -85 -20 -85 -19 0 -20 -7 -20 -105 0 -98 -1 -105 -20 -105
-18 0 -20 -7 -20 -80 0 -73 -2 -80 -20 -80 -18 0 -20 -7 -20 -85 0 -78 -2 -85
-20 -85 -18 0 -20 -7 -20 -85 0 -84 0 -85 -25 -85 -25 0 -25 -1 -25 -80 0 -73
-2 -80 -20 -80 -19 0 -20 -7 -20 -105 0 -98 -1 -105 -20 -105 -13 0 -20 -7
-20 -20 0 -17 7 -20 40 -20 36 0 40 -2 40 -25 l0 -25 125 0 125 0 0 85 c0 84
0 85 25 85 25 0 25 1 25 85 0 78 2 85 20 85 18 0 20 7 20 80 0 73 2 80 20 80
19 0 20 7 20 105 0 98 1 105 20 105 18 0 20 7 20 85 0 78 2 85 20 85 19 0 20
7 20 105 0 98 1 105 20 105 18 0 20 7 20 80 0 79 0 80 25 80 25 0 25 1 25 85
0 78 2 85 20 85 18 0 20 7 20 85 0 78 2 85 20 85 19 0 20 7 20 105 0 98 1 105
20 105 18 0 20 7 20 80 0 73 2 80 20 80 17 0 20 7 20 45 l0 45 -80 0 c-73 0
-80 2 -80 20 0 19 -7 20 -125 20 -118 0 -125 -1 -125 -20 0 -15 -7 -20 -25
-20 -23 0 -25 -4 -25 -45 0 -38 -3 -45 -20 -45 -13 0 -20 -7 -20 -20 0 -13 -7
-20 -20 -20 -17 0 -20 -7 -20 -40 0 -33 -3 -40 -20 -40 -17 0 -20 -7 -20 -45
0 -38 -3 -45 -20 -45 -17 0 -20 -7 -20 -40 0 -33 -3 -40 -20 -40 -13 0 -20 -7
-20 -20 0 -15 -7 -20 -25 -20 -22 0 -25 -4 -25 -40 0 -33 -3 -40 -20 -40 -15
0 -20 -7 -20 -25 0 -18 -5 -25 -20 -25 -17 0 -20 -7 -20 -40 0 -33 -3 -40 -20
-40 -17 0 -20 -7 -20 -40 0 -33 -3 -40 -20 -40 -13 0 -20 -7 -20 -20 0 -13 -7
-20 -20 -20 -17 0 -20 -7 -20 -45 0 -41 -2 -45 -25 -45 -22 0 -25 -4 -25 -40
0 -33 -3 -40 -20 -40 -17 0 -20 -7 -20 -40 0 -33 -3 -40 -20 -40 -15 0 -20 -7
-20 -25 0 -18 -5 -25 -20 -25 -17 0 -20 -7 -20 -40 0 -33 -3 -40 -20 -40 -17
0 -20 -7 -20 -40 0 -33 -3 -40 -20 -40 -13 0 -20 -7 -20 -20 0 -15 -7 -20 -25
-20 -23 0 -25 -4 -25 -45 0 -38 -3 -45 -20 -45 -17 0 -20 -7 -20 -40 0 -33 -3
-40 -20 -40 -13 0 -20 -7 -20 -20 0 -13 -7 -20 -20 -20 -17 0 -20 7 -20 40 0
33 -3 40 -20 40 -19 0 -20 7 -20 250 0 243 -1 250 -20 250 -20 0 -20 7 -20
290 l0 290 -25 0 -25 0 0 230 c0 223 -1 230 -20 230 -13 0 -20 7 -20 20 0 18
-7 20 -60 20 -57 0 -60 1 -60 25 l0 25 -145 0 -145 0 0 -65z"/>
<path d="M7570 19435 c0 -18 -5 -25 -20 -25 -18 0 -20 -7 -20 -60 0 -57 -1
-60 -25 -60 l-25 0 0 -105 c0 -98 -1 -105 -20 -105 -18 0 -20 -7 -20 -85 0
-78 -2 -85 -20 -85 -18 0 -20 -7 -20 -80 0 -73 -2 -80 -20 -80 -18 0 -20 -7
-20 -85 0 -78 -2 -85 -20 -85 -19 0 -20 -7 -20 -105 0 -98 -1 -105 -20 -105
-18 0 -20 -7 -20 -60 0 -57 -1 -60 -25 -60 l-25 0 0 -105 c0 -98 -1 -105 -20
-105 -18 0 -20 -7 -20 -85 0 -78 -2 -85 -20 -85 -18 0 -20 -7 -20 -80 0 -73
-2 -80 -20 -80 -18 0 -20 -7 -20 -85 0 -78 -2 -85 -20 -85 -18 0 -20 -7 -20
-85 l0 -85 105 0 c98 0 105 -1 105 -20 0 -17 7 -20 40 -20 l40 0 0 40 c0 33 3
40 20 40 18 0 20 7 20 85 0 78 2 85 20 85 19 0 20 7 20 105 0 98 1 105 20 105
19 0 20 7 20 105 l0 105 25 0 c24 0 25 3 25 60 0 53 2 60 20 60 19 0 20 7 20
105 0 98 1 105 20 105 19 0 20 7 20 105 0 98 1 105 20 105 18 0 20 7 20 60 0
53 2 60 20 60 19 0 20 7 20 105 0 98 1 105 20 105 13 0 20 -7 20 -20 0 -15 7
-20 25 -20 l25 0 0 -230 c0 -223 1 -230 20 -230 19 0 20 -7 20 -230 0 -223 1
-230 20 -230 19 0 20 -7 20 -225 0 -218 1 -225 20 -225 19 0 20 -7 20 -105 l0
-105 85 0 c78 0 85 -2 85 -20 0 -18 7 -20 60 -20 53 0 60 2 60 20 0 13 7 20
20 20 17 0 20 7 20 40 0 36 3 40 25 40 23 0 25 4 25 40 0 33 3 40 20 40 17 0
20 7 20 45 0 38 3 45 20 45 13 0 20 7 20 20 0 13 7 20 20 20 17 0 20 7 20 40
0 33 3 40 20 40 17 0 20 7 20 45 0 38 3 45 20 45 13 0 20 7 20 20 0 15 7 20
25 20 23 0 25 4 25 40 0 33 3 40 20 40 17 0 20 7 20 40 0 33 3 40 20 40 15 0
20 7 20 25 0 18 5 25 20 25 17 0 20 7 20 40 0 33 3 40 20 40 17 0 20 7 20 40
0 33 3 40 20 40 13 0 20 7 20 20 0 15 7 20 25 20 23 0 25 4 25 45 0 38 3 45
20 45 17 0 20 7 20 40 0 33 3 40 20 40 17 0 20 7 20 40 0 33 3 40 20 40 15 0
20 7 20 25 0 18 5 25 20 25 17 0 20 7 20 40 0 33 3 40 20 40 13 0 20 7 20 20
0 15 7 20 25 20 23 0 25 4 25 40 0 33 3 40 20 40 18 0 20 -7 20 -60 0 -53 -2
-60 -20 -60 -18 0 -20 -7 -20 -85 0 -84 0 -85 -25 -85 l-25 0 0 -105 c0 -98
-1 -105 -20 -105 -18 0 -20 -7 -20 -80 0 -73 -2 -80 -20 -80 -19 0 -20 -7 -20
-105 0 -98 -1 -105 -20 -105 -18 0 -20 -7 -20 -85 0 -78 -2 -85 -20 -85 -19 0
-20 -7 -20 -105 0 -98 -1 -105 -20 -105 -18 0 -20 -7 -20 -80 0 -79 0 -80 -25
-80 -24 0 -25 -2 -25 -65 l0 -65 65 0 c58 0 65 -2 65 -20 0 -18 7 -20 85 -20
l85 0 0 40 c0 33 3 40 20 40 18 0 20 7 20 85 0 78 2 85 20 85 19 0 20 7 20
105 0 98 1 105 20 105 19 0 20 7 20 105 0 98 1 105 20 105 18 0 20 7 20 80 0
73 2 80 20 80 18 0 20 7 20 85 0 84 0 85 25 85 l25 0 0 105 c0 98 1 105 20
105 18 0 20 7 20 85 0 78 2 85 20 85 19 0 20 7 20 100 0 93 1 100 20 100 18 0
20 7 20 85 0 78 2 85 20 85 19 0 20 7 20 125 0 118 1 125 20 125 17 0 20 7 20
40 l0 40 -60 0 c-57 0 -60 1 -60 25 l0 25 -145 0 -145 0 0 -25 c0 -18 -5 -25
-20 -25 -17 0 -20 -7 -20 -40 0 -36 -2 -40 -25 -40 -22 0 -25 -4 -25 -40 0
-33 -3 -40 -20 -40 -13 0 -20 -7 -20 -20 0 -13 -7 -20 -20 -20 -17 0 -20 -7
-20 -45 0 -38 -3 -45 -20 -45 -17 0 -20 -7 -20 -40 0 -33 -3 -40 -20 -40 -13
0 -20 -7 -20 -20 0 -13 -7 -20 -20 -20 -17 0 -20 -7 -20 -45 0 -41 -2 -45 -25
-45 -22 0 -25 -4 -25 -40 0 -33 -3 -40 -20 -40 -17 0 -20 -7 -20 -40 0 -33 -3
-40 -20 -40 -13 0 -20 -7 -20 -20 0 -13 -7 -20 -20 -20 -17 0 -20 -7 -20 -45
0 -38 -3 -45 -20 -45 -17 0 -20 -7 -20 -40 0 -33 -3 -40 -20 -40 -13 0 -20 -7
-20 -20 0 -15 -7 -20 -25 -20 -23 0 -25 -4 -25 -45 0 -38 -3 -45 -20 -45 -17
0 -20 -7 -20 -40 0 -33 -3 -40 -20 -40 -13 0 -20 -7 -20 -20 0 -13 -7 -20 -20
-20 -17 0 -20 -7 -20 -40 0 -33 -3 -40 -20 -40 -17 0 -20 -7 -20 -45 0 -38 -3
-45 -20 -45 -13 0 -20 -7 -20 -20 0 -15 -7 -20 -25 -20 -22 0 -25 -4 -25 -40
0 -33 -3 -40 -20 -40 -17 0 -20 -7 -20 -45 l0 -45 -40 0 -40 0 0 250 c0 243
-1 250 -20 250 -19 0 -20 7 -20 210 0 203 -1 210 -20 210 -19 0 -20 7 -20 230
l0 230 -25 0 -25 0 0 165 0 165 -40 0 c-33 0 -40 3 -40 20 0 19 -7 20 -145 20
l-145 0 0 25 c0 18 -5 25 -20 25 -15 0 -20 -7 -20 -25z"/>
<path d="M9610 19120 c0 -33 -3 -40 -20 -40 -19 0 -20 -7 -20 -105 0 -98 -1
-105 -20 -105 -18 0 -20 -7 -20 -80 0 -79 0 -80 -25 -80 -25 0 -25 -1 -25 -85
0 -78 -2 -85 -20 -85 -19 0 -20 -7 -20 -105 0 -98 -1 -105 -20 -105 -18 0 -20
-7 -20 -85 0 -78 -2 -85 -20 -85 -19 0 -20 -7 -20 -100 0 -93 -1 -100 -20
-100 -19 0 -20 -7 -20 -105 0 -98 -1 -105 -20 -105 -18 0 -20 -7 -20 -85 0
-84 0 -85 -25 -85 l-25 0 0 -105 c0 -98 -1 -105 -20 -105 -18 0 -20 -7 -20
-80 0 -73 -2 -80 -20 -80 -18 0 -20 -7 -20 -65 0 -58 2 -65 20 -65 13 0 20 -7
20 -20 0 -18 7 -20 85 -20 78 0 85 -2 85 -20 0 -19 7 -20 145 -20 138 0 145
-1 145 -20 0 -19 7 -20 125 -20 l125 0 0 -25 0 -25 145 0 c138 0 145 -1 145
-20 0 -19 7 -20 105 -20 98 0 105 -1 105 -20 0 -19 7 -20 145 -20 138 0 145
-1 145 -20 0 -13 7 -20 20 -20 18 0 20 7 20 85 0 84 0 85 25 85 23 0 25 4 25
40 0 36 -2 40 -25 40 -18 0 -25 5 -25 20 0 18 -7 20 -80 20 -73 0 -80 2 -80
20 0 19 -7 20 -125 20 -118 0 -125 1 -125 20 0 19 -7 20 -125 20 l-125 0 0 25
0 25 -145 0 c-138 0 -145 1 -145 20 0 19 -7 20 -125 20 l-125 0 0 105 c0 98 1
105 20 105 19 0 20 7 20 100 0 93 1 100 20 100 18 0 20 7 20 85 0 78 2 85 20
85 18 0 20 7 20 65 l0 65 145 0 145 0 0 -25 0 -25 125 0 c118 0 125 -1 125
-20 0 -19 7 -20 125 -20 118 0 125 -1 125 -20 0 -19 7 -20 145 -20 138 0 145
-1 145 -20 0 -15 7 -20 25 -20 18 0 25 5 25 20 0 13 7 20 20 20 18 0 20 7 20
85 0 78 2 85 20 85 13 0 20 7 20 20 0 13 -7 20 -20 20 -13 0 -20 7 -20 20 0
19 -7 20 -125 20 -118 0 -125 1 -125 20 0 19 -7 20 -145 20 -138 0 -145 1
-145 20 0 19 -7 20 -105 20 l-105 0 0 25 0 25 -170 0 -170 0 0 100 0 100 25 0
25 0 0 105 c0 98 1 105 20 105 19 0 20 7 20 105 l0 105 165 0 c158 0 165 -1
165 -20 0 -19 7 -20 145 -20 138 0 145 -1 145 -20 0 -19 7 -20 145 -20 138 0
145 -1 145 -20 0 -19 7 -20 150 -20 l150 0 0 -25 c0 -18 5 -25 20 -25 18 0 20
7 20 65 0 58 2 65 20 65 18 0 20 7 20 60 0 53 -2 60 -20 60 -15 0 -20 7 -20
25 l0 25 -105 0 c-98 0 -105 1 -105 20 0 19 -7 20 -165 20 -158 0 -165 1 -165
20 0 19 -7 20 -150 20 -143 0 -150 1 -150 20 0 19 -7 20 -145 20 -138 0 -145
1 -145 20 0 19 -7 20 -145 20 -138 0 -145 1 -145 20 0 13 -7 20 -20 20 -17 0
-20 -7 -20 -40z"/>
<path d="M11320 18890 c0 -13 -7 -20 -20 -20 -18 0 -20 -7 -20 -60 0 -57 -1
-60 -25 -60 l-25 0 0 -105 c0 -98 -1 -105 -20 -105 -19 0 -20 -7 -20 -105 0
-98 -1 -105 -20 -105 -19 0 -20 -7 -20 -105 0 -98 -1 -105 -20 -105 -18 0 -20
-7 -20 -80 0 -73 -2 -80 -20 -80 -19 0 -20 -7 -20 -105 0 -98 -1 -105 -20
-105 -19 0 -20 -7 -20 -105 l0 -105 -25 0 -25 0 0 -105 c0 -98 -1 -105 -20
-105 -18 0 -20 -7 -20 -85 0 -78 -2 -85 -20 -85 -18 0 -20 -7 -20 -80 0 -73
-2 -80 -20 -80 -19 0 -20 -7 -20 -105 l0 -105 60 0 c53 0 60 -2 60 -20 0 -18
7 -20 85 -20 l85 0 0 80 c0 73 2 80 20 80 18 0 20 7 20 85 0 78 2 85 20 85 19
0 20 7 20 105 l0 105 25 0 25 0 0 105 c0 98 1 105 20 105 19 0 20 7 20 105 0
98 1 105 20 105 18 0 20 7 20 80 0 73 2 80 20 80 19 0 20 7 20 105 0 98 1 105
20 105 19 0 20 7 20 105 0 98 1 105 20 105 13 0 20 7 20 20 0 15 7 20 25 20
23 0 25 -4 25 -40 0 -33 3 -40 20 -40 17 0 20 -7 20 -45 0 -38 3 -45 20 -45
18 0 20 -7 20 -60 0 -53 2 -60 20 -60 18 0 20 -7 20 -65 0 -58 2 -65 20 -65
13 0 20 -7 20 -20 0 -13 7 -20 20 -20 18 0 20 -7 20 -60 0 -57 1 -60 25 -60
23 0 25 -4 25 -45 0 -38 3 -45 20 -45 18 0 20 -7 20 -60 0 -53 2 -60 20 -60
17 0 20 -7 20 -40 0 -33 3 -40 20 -40 17 0 20 -7 20 -45 0 -38 3 -45 20 -45
18 0 20 -7 20 -60 0 -53 2 -60 20 -60 17 0 20 -7 20 -45 0 -41 2 -45 25 -45
24 0 25 -3 25 -60 0 -53 2 -60 20 -60 17 0 20 -7 20 -40 0 -33 3 -40 20 -40
18 0 20 -7 20 -65 0 -58 2 -65 20 -65 17 0 20 -7 20 -40 0 -33 3 -40 20 -40
18 0 20 -7 20 -65 0 -58 2 -65 20 -65 13 0 20 -7 20 -20 0 -17 7 -20 45 -20
38 0 45 -3 45 -20 0 -19 7 -20 125 -20 l125 0 0 105 c0 98 1 105 20 105 19 0
20 7 20 105 0 98 1 105 20 105 18 0 20 7 20 80 0 73 2 80 20 80 19 0 20 7 20
125 0 118 1 125 20 125 19 0 20 7 20 105 l0 105 25 0 25 0 0 105 c0 98 1 105
20 105 19 0 20 7 20 105 0 98 1 105 20 105 19 0 20 7 20 105 0 98 1 105 20
105 18 0 20 7 20 80 0 73 2 80 20 80 19 0 20 7 20 125 0 118 1 125 20 125 13
0 20 7 20 20 0 17 -7 20 -40 20 -36 0 -40 3 -40 25 l0 25 -105 0 -105 0 0 -25
c0 -18 -5 -25 -20 -25 -19 0 -20 -7 -20 -125 0 -118 -1 -125 -20 -125 -18 0
-20 -7 -20 -80 0 -73 -2 -80 -20 -80 -19 0 -20 -7 -20 -105 0 -98 -1 -105 -20
-105 -19 0 -20 -7 -20 -125 l0 -125 -25 0 c-25 0 -25 -1 -25 -85 0 -78 -2 -85
-20 -85 -19 0 -20 -7 -20 -105 0 -98 -1 -105 -20 -105 -19 0 -20 -7 -20 -100
0 -93 -1 -100 -20 -100 -17 0 -20 -7 -20 -45 0 -38 -3 -45 -20 -45 -13 0 -20
7 -20 20 0 13 -7 20 -20 20 -18 0 -20 7 -20 65 0 63 -1 65 -25 65 -22 0 -25 4
-25 40 0 33 -3 40 -20 40 -17 0 -20 7 -20 45 0 38 -3 45 -20 45 -18 0 -20 7
-20 60 0 53 -2 60 -20 60 -17 0 -20 7 -20 40 0 33 -3 40 -20 40 -18 0 -20 7
-20 65 0 58 -2 65 -20 65 -17 0 -20 7 -20 40 0 36 -2 40 -25 40 -24 0 -25 2
-25 65 0 58 -2 65 -20 65 -17 0 -20 7 -20 40 0 33 -3 40 -20 40 -17 0 -20 7
-20 40 0 33 -3 40 -20 40 -18 0 -20 7 -20 65 0 58 -2 65 -20 65 -17 0 -20 7
-20 40 0 33 -3 40 -20 40 -17 0 -20 7 -20 45 0 41 -2 45 -25 45 -24 0 -25 3
-25 60 0 53 -2 60 -20 60 -17 0 -20 7 -20 40 0 33 -3 40 -20 40 -17 0 -20 7
-20 45 0 38 -3 45 -20 45 -17 0 -20 7 -20 40 0 33 -3 40 -20 40 -13 0 -20 7
-20 20 0 17 -7 20 -45 20 -38 0 -45 3 -45 20 0 18 -7 20 -80 20 -73 0 -80 -2
-80 -20z"/>
<path d="M13530 18560 c0 -18 -7 -20 -65 -20 -58 0 -65 -2 -65 -20 0 -13 -7
-20 -20 -20 -13 0 -20 -7 -20 -20 0 -17 -7 -20 -40 -20 -36 0 -40 -2 -40 -25
0 -20 -5 -25 -25 -25 -18 0 -25 -5 -25 -20 0 -13 -7 -20 -20 -20 -17 0 -20 -7
-20 -40 0 -33 -3 -40 -20 -40 -13 0 -20 -7 -20 -20 0 -13 -7 -20 -20 -20 -18
0 -20 -7 -20 -65 0 -58 -2 -65 -20 -65 -19 0 -20 -7 -20 -105 0 -98 1 -105 20
-105 18 0 20 -7 20 -60 0 -53 2 -60 20 -60 13 0 20 -7 20 -20 0 -13 7 -20 20
-20 17 0 20 -7 20 -45 0 -38 3 -45 20 -45 13 0 20 -7 20 -20 0 -15 7 -20 25
-20 18 0 25 -5 25 -20 0 -17 7 -20 40 -20 33 0 40 -3 40 -20 0 -13 7 -20 20
-20 13 0 20 -7 20 -20 0 -17 7 -20 40 -20 33 0 40 -3 40 -20 0 -17 7 -20 45
-20 41 0 45 -2 45 -25 0 -22 4 -25 40 -25 33 0 40 -3 40 -20 0 -18 7 -20 65
-20 58 0 65 -2 65 -20 0 -17 7 -20 40 -20 33 0 40 -3 40 -20 0 -17 7 -20 40
-20 33 0 40 -3 40 -20 0 -18 7 -20 65 -20 58 0 65 -2 65 -20 0 -13 7 -20 20
-20 15 0 20 -7 20 -25 0 -22 4 -25 40 -25 33 0 40 -3 40 -20 0 -13 7 -20 20
-20 17 0 20 -7 20 -40 0 -36 3 -40 25 -40 l25 0 0 -105 0 -105 -25 0 c-18 0
-25 -5 -25 -20 0 -13 -7 -20 -20 -20 -13 0 -20 -7 -20 -20 0 -13 -7 -20 -20
-20 -13 0 -20 -7 -20 -20 0 -13 -7 -20 -20 -20 -15 0 -20 -7 -20 -25 0 -18 -5
-25 -20 -25 -13 0 -20 -7 -20 -20 0 -17 -7 -20 -45 -20 -38 0 -45 -3 -45 -20
0 -19 -7 -20 -185 -20 -178 0 -185 1 -185 20 0 19 -7 20 -105 20 -98 0 -105 1
-105 20 0 17 -7 20 -40 20 -36 0 -40 3 -40 25 0 18 -5 25 -20 25 -13 0 -20 7
-20 20 0 15 -7 20 -25 20 -18 0 -25 5 -25 20 0 13 -7 20 -20 20 -13 0 -20 7
-20 20 0 13 -7 20 -20 20 -18 0 -20 7 -20 65 0 58 -2 65 -20 65 -19 0 -20 7
-20 125 l0 125 -145 0 -145 0 0 -170 c0 -163 1 -170 20 -170 17 0 20 -7 20
-40 0 -33 3 -40 20 -40 17 0 20 -7 20 -40 0 -33 3 -40 20 -40 15 0 20 -7 20
-25 0 -18 5 -25 20 -25 13 0 20 -7 20 -20 0 -15 7 -20 25 -20 23 0 25 -4 25
-40 l0 -40 40 0 c33 0 40 -3 40 -20 0 -13 7 -20 20 -20 13 0 20 -7 20 -20 0
-17 7 -20 40 -20 36 0 40 -2 40 -25 0 -23 4 -25 45 -25 38 0 45 -3 45 -20 0
-18 7 -20 60 -20 53 0 60 -2 60 -20 0 -18 7 -20 85 -20 78 0 85 -2 85 -20 0
-19 7 -20 210 -20 203 0 210 1 210 20 0 17 7 20 40 20 33 0 40 3 40 20 0 17 7
20 40 20 33 0 40 3 40 20 0 17 7 20 45 20 41 0 45 2 45 25 0 23 4 25 40 25 33
0 40 3 40 20 0 13 7 20 20 20 17 0 20 7 20 40 l0 40 40 0 40 0 0 40 c0 36 3
40 25 40 24 0 25 2 25 65 0 58 2 65 20 65 19 0 20 7 20 145 0 138 -1 145 -20
145 -18 0 -20 7 -20 65 0 63 -1 65 -25 65 -18 0 -25 5 -25 20 0 13 -7 20 -20
20 -13 0 -20 7 -20 20 0 13 -7 20 -20 20 -13 0 -20 7 -20 20 0 13 -7 20 -20
20 -13 0 -20 7 -20 20 0 13 -7 20 -20 20 -13 0 -20 7 -20 20 0 13 -7 20 -20
20 -15 0 -20 7 -20 25 0 23 -4 25 -45 25 -38 0 -45 3 -45 20 0 17 -7 20 -40
20 -33 0 -40 3 -40 20 0 13 -7 20 -20 20 -13 0 -20 7 -20 20 0 18 -7 20 -65
20 -58 0 -65 2 -65 20 0 18 -7 20 -60 20 -53 0 -60 2 -60 20 0 17 -7 20 -45
20 -41 0 -45 2 -45 25 0 23 -4 25 -40 25 -33 0 -40 3 -40 20 0 17 -7 20 -40
20 -33 0 -40 3 -40 20 0 17 -7 20 -45 20 -38 0 -45 3 -45 20 0 17 -7 20 -40
20 l-40 0 0 40 c0 33 -3 40 -20 40 -18 0 -20 7 -20 65 0 58 2 65 20 65 18 0
20 7 20 60 0 53 2 60 20 60 15 0 20 7 20 25 0 18 5 25 20 25 13 0 20 7 20 20
0 17 7 20 45 20 38 0 45 3 45 20 0 18 7 20 60 20 53 0 60 2 60 20 0 19 7 20
125 20 118 0 125 -1 125 -20 0 -18 7 -20 85 -20 78 0 85 -2 85 -20 0 -17 7
-20 40 -20 33 0 40 -3 40 -20 0 -17 7 -20 45 -20 41 0 45 -2 45 -25 0 -18 5
-25 20 -25 17 0 20 -7 20 -40 0 -33 3 -40 20 -40 18 0 20 -7 20 -60 0 -53 2
-60 20 -60 18 0 20 -7 20 -65 l0 -65 65 0 c58 0 65 -2 65 -20 0 -18 7 -20 60
-20 53 0 60 2 60 20 0 13 7 20 20 20 13 0 20 7 20 20 0 13 -7 20 -20 20 -19 0
-20 7 -20 125 0 118 -1 125 -20 125 -17 0 -20 7 -20 45 0 38 -3 45 -20 45 -17
0 -20 7 -20 40 0 33 -3 40 -20 40 -13 0 -20 7 -20 20 0 15 -7 20 -25 20 -18 0
-25 5 -25 20 0 13 -7 20 -20 20 -13 0 -20 7 -20 20 0 17 -7 20 -40 20 -36 0
-40 3 -40 25 0 18 -5 25 -20 25 -13 0 -20 7 -20 20 0 18 -7 20 -65 20 -58 0
-65 2 -65 20 0 18 -7 20 -60 20 -53 0 -60 2 -60 20 0 20 -7 20 -270 20 -263 0
-270 0 -270 -20z"/>
<path d="M15030 18390 c0 -15 -7 -20 -25 -20 l-25 0 0 -105 c0 -98 -1 -105
-20 -105 -19 0 -20 -7 -20 -100 0 -93 -1 -100 -20 -100 -19 0 -20 -7 -20 -105
0 -98 -1 -105 -20 -105 -19 0 -20 -7 -20 -125 0 -118 -1 -125 -20 -125 -19 0
-20 -7 -20 -105 0 -98 -1 -105 -20 -105 -19 0 -20 -7 -20 -105 l0 -105 -25 0
-25 0 0 -125 c0 -118 -1 -125 -20 -125 -19 0 -20 -7 -20 -105 0 -98 -1 -105
-20 -105 -19 0 -20 -7 -20 -105 0 -98 -1 -105 -20 -105 -19 0 -20 -7 -20 -100
0 -93 1 -100 20 -100 15 0 20 -7 20 -25 l0 -25 125 0 125 0 0 65 c0 58 2 65
20 65 19 0 20 7 20 105 0 98 1 105 20 105 19 0 20 7 20 125 l0 125 25 0 25 0
0 105 c0 98 1 105 20 105 19 0 20 7 20 100 0 93 1 100 20 100 19 0 20 7 20
125 0 118 1 125 20 125 19 0 20 7 20 105 0 98 1 105 20 105 19 0 20 7 20 125
0 118 1 125 20 125 19 0 20 7 20 105 l0 105 25 0 25 0 0 145 0 145 -105 0
c-98 0 -105 1 -105 20 0 13 -7 20 -20 20 -13 0 -20 -7 -20 -20z"/>
<path d="M15440 18225 c0 -98 -1 -105 -20 -105 -13 0 -20 -7 -20 -20 0 -13 7
-20 20 -20 13 0 20 -7 20 -20 0 -19 7 -20 125 -20 118 0 125 -1 125 -20 0 -19
7 -20 145 -20 138 0 145 -1 145 -20 0 -18 7 -20 65 -20 63 0 65 -1 65 -25 0
-18 5 -25 20 -25 13 0 20 -7 20 -20 0 -13 -7 -20 -20 -20 -19 0 -20 -7 -20
-105 0 -98 -1 -105 -20 -105 -19 0 -20 -7 -20 -100 0 -93 -1 -100 -20 -100
-19 0 -20 -7 -20 -150 l0 -150 -25 0 -25 0 0 -125 c0 -118 -1 -125 -20 -125
-18 0 -20 -7 -20 -80 0 -73 -2 -80 -20 -80 -19 0 -20 -7 -20 -105 0 -98 -1
-105 -20 -105 -19 0 -20 -7 -20 -125 0 -118 -1 -125 -20 -125 -19 0 -20 -7
-20 -145 l0 -145 80 0 c73 0 80 -2 80 -20 0 -18 7 -20 65 -20 l65 0 0 100 c0
93 1 100 20 100 19 0 20 7 20 105 0 98 1 105 20 105 19 0 20 7 20 125 0 118 1
125 20 125 19 0 20 7 20 125 l0 125 25 0 25 0 0 125 c0 118 1 125 20 125 19 0
20 7 20 105 0 98 1 105 20 105 19 0 20 7 20 125 0 118 1 125 20 125 19 0 20 7
20 105 0 98 1 105 20 105 18 0 20 7 20 60 l0 60 65 0 c58 0 65 -2 65 -20 0
-19 7 -20 125 -20 118 0 125 -1 125 -20 0 -19 7 -20 165 -20 158 0 165 -1 165
-20 0 -13 7 -20 20 -20 18 0 20 7 20 85 0 78 2 85 20 85 18 0 20 7 20 60 l0
60 -80 0 c-73 0 -80 2 -80 20 0 19 -7 20 -145 20 -138 0 -145 1 -145 20 0 19
-7 20 -125 20 l-125 0 0 25 0 25 -150 0 c-143 0 -150 1 -150 20 0 19 -7 20
-165 20 -158 0 -165 1 -165 20 0 19 -7 20 -145 20 -138 0 -145 1 -145 20 0 18
-7 20 -85 20 l-85 0 0 -105z"/>
<path d="M17480 17790 c0 -36 3 -40 25 -40 23 0 25 4 25 40 0 36 -2 40 -25 40
-22 0 -25 -4 -25 -40z"/>
<path d="M17610 17685 c0 -18 -5 -25 -20 -25 -13 0 -20 -7 -20 -20 0 -17 7
-20 40 -20 l40 0 0 45 c0 38 -3 45 -20 45 -15 0 -20 -7 -20 -25z"/>
<path d="M17610 17520 c0 -17 7 -20 40 -20 33 0 40 -3 40 -20 0 -13 7 -20 20
-20 17 0 20 7 20 40 l0 40 -60 0 c-53 0 -60 -2 -60 -20z"/>
<path d="M17730 17350 c0 -15 7 -20 25 -20 18 0 25 -5 25 -20 0 -13 7 -20 20
-20 17 0 20 7 20 40 l0 40 -45 0 c-38 0 -45 -3 -45 -20z"/>
<path d="M19690 17330 l0 -40 45 0 c38 0 45 3 45 20 0 15 -7 20 -25 20 -18 0
-25 5 -25 20 0 13 -7 20 -20 20 -17 0 -20 -7 -20 -40z"/>
<path d="M17820 17230 c0 -13 7 -20 20 -20 17 0 20 -7 20 -45 l0 -45 40 0 40
0 0 65 c0 58 -2 65 -20 65 -13 0 -20 -7 -20 -20 0 -13 -7 -20 -20 -20 -13 0
-20 7 -20 20 0 13 -7 20 -20 20 -13 0 -20 -7 -20 -20z"/>
<path d="M19650 17230 c0 -17 7 -20 40 -20 33 0 40 3 40 20 0 17 -7 20 -40 20
-33 0 -40 -3 -40 -20z"/>
<path d="M19280 17140 c0 -13 7 -20 20 -20 13 0 20 7 20 20 0 13 -7 20 -20 20
-13 0 -20 -7 -20 -20z"/>
<path d="M19480 17140 c0 -17 7 -20 45 -20 38 0 45 3 45 20 0 17 -7 20 -45 20
-38 0 -45 -3 -45 -20z"/>
<path d="M19030 17100 c0 -13 7 -20 20 -20 13 0 20 7 20 20 0 13 -7 20 -20 20
-13 0 -20 -7 -20 -20z"/>
<path d="M17940 17040 l0 -40 45 0 45 0 0 40 0 40 -45 0 -45 0 0 -40z"/>
<path d="M19280 17020 c0 -13 7 -20 20 -20 13 0 20 7 20 20 0 13 -7 20 -20 20
-13 0 -20 -7 -20 -20z"/>
<path d="M18820 16980 c0 -13 7 -20 20 -20 13 0 20 7 20 20 0 13 -7 20 -20 20
-13 0 -20 -7 -20 -20z"/>
<path d="M19070 16955 c0 -38 3 -45 20 -45 17 0 20 7 20 45 0 38 -3 45 -20 45
-17 0 -20 -7 -20 -45z"/>
<path d="M18110 16935 c0 -22 -4 -25 -40 -25 -33 0 -40 -3 -40 -20 0 -13 7
-20 20 -20 13 0 20 -7 20 -20 0 -13 7 -20 20 -20 17 0 20 7 20 40 0 33 3 40
20 40 15 0 20 7 20 25 0 18 -5 25 -20 25 -15 0 -20 -7 -20 -25z"/>
<path d="M18320 16850 c0 -13 7 -20 20 -20 13 0 20 7 20 20 0 13 -7 20 -20 20
-13 0 -20 -7 -20 -20z"/>
<path d="M18820 16850 c0 -13 7 -20 20 -20 13 0 20 7 20 20 0 13 -7 20 -20 20
-13 0 -20 -7 -20 -20z"/>
<path d="M18400 16810 c0 -13 7 -20 20 -20 13 0 20 7 20 20 0 13 -7 20 -20 20
-13 0 -20 -7 -20 -20z"/>
<path d="M18110 16770 c0 -13 7 -20 20 -20 17 0 20 -7 20 -45 0 -38 3 -45 20
-45 18 0 20 -7 20 -60 0 -53 2 -60 20 -60 18 0 20 -7 20 -65 0 -63 1 -65 25
-65 23 0 25 -4 25 -40 0 -36 -2 -40 -25 -40 -18 0 -25 -5 -25 -20 0 -15 7 -20
25 -20 23 0 25 -4 25 -40 0 -36 -2 -40 -25 -40 -20 0 -25 -5 -25 -25 0 -20 5
-25 25 -25 18 0 25 -5 25 -20 0 -13 7 -20 20 -20 13 0 20 -7 20 -20 0 -13 -7
-20 -20 -20 -13 0 -20 -7 -20 -20 0 -13 7 -20 20 -20 13 0 20 -7 20 -20 0 -13
7 -20 20 -20 13 0 20 -7 20 -20 0 -13 -7 -20 -20 -20 -17 0 -20 -7 -20 -45 0
-38 3 -45 20 -45 18 0 20 -7 20 -80 0 -73 2 -80 20 -80 15 0 20 -7 20 -25 0
-18 -5 -25 -20 -25 -13 0 -20 -7 -20 -20 0 -13 7 -20 20 -20 13 0 20 -7 20
-20 0 -13 7 -20 20 -20 19 0 20 7 20 145 0 138 -1 145 -20 145 -18 0 -20 7
-20 65 0 58 -2 65 -20 65 -19 0 -20 7 -20 145 0 138 -1 145 -20 145 -19 0 -20
7 -20 105 0 98 -1 105 -20 105 -19 0 -20 7 -20 105 l0 105 -25 0 c-22 0 -25 4
-25 40 0 33 -3 40 -20 40 -13 0 -20 -7 -20 -20 0 -13 -7 -20 -20 -20 -13 0
-20 7 -20 20 0 13 -7 20 -20 20 -13 0 -20 -7 -20 -20z"/>
<path d="M18610 16770 c0 -17 7 -20 40 -20 33 0 40 3 40 20 0 17 -7 20 -40 20
-33 0 -40 -3 -40 -20z"/>
<path d="M18400 16685 c0 -18 5 -25 20 -25 15 0 20 7 20 25 0 18 -5 25 -20 25
-15 0 -20 -7 -20 -25z"/>
<path d="M18320 16560 c0 -13 7 -20 20 -20 13 0 20 7 20 20 0 13 -7 20 -20 20
-13 0 -20 -7 -20 -20z"/>
<path d="M18400 16270 c0 -13 7 -20 20 -20 13 0 20 7 20 20 0 13 -7 20 -20 20
-13 0 -20 -7 -20 -20z"/>
<path d="M18480 15850 c0 -15 7 -20 25 -20 18 0 25 5 25 20 0 15 -7 20 -25 20
-18 0 -25 -5 -25 -20z"/>
<path d="M18690 15375 l0 -85 65 0 c58 0 65 2 65 20 0 13 7 20 20 20 18 0 20
7 20 65 0 58 -2 65 -20 65 -18 0 -20 -7 -20 -65 l0 -65 -45 0 c-38 0 -45 3
-45 20 0 15 7 20 25 20 23 0 25 4 25 45 l0 45 -45 0 -45 0 0 -85z"/>
<path d="M18900 15415 c0 -38 3 -45 20 -45 17 0 20 7 20 45 0 38 -3 45 -20 45
-17 0 -20 -7 -20 -45z"/>
<path d="M18610 15390 c0 -17 -7 -20 -40 -20 -33 0 -40 -3 -40 -20 0 -17 7
-20 40 -20 33 0 40 3 40 20 0 13 7 20 20 20 13 0 20 7 20 20 0 13 -7 20 -20
20 -13 0 -20 -7 -20 -20z"/>
<path d="M19030 15370 c0 -33 3 -40 20 -40 17 0 20 -7 20 -40 0 -33 3 -40 20
-40 17 0 20 7 20 40 0 33 3 40 20 40 13 0 20 7 20 20 0 13 -7 20 -20 20 -13 0
-20 -7 -20 -20 0 -13 -7 -20 -20 -20 -17 0 -20 7 -20 40 0 33 -3 40 -20 40
-17 0 -20 -7 -20 -40z"/>
<path d="M19190 15290 l0 -80 65 0 c58 0 65 2 65 20 0 13 7 20 20 20 18 0 20
7 20 60 0 53 -2 60 -20 60 -18 0 -20 -7 -20 -60 l0 -60 -45 0 c-38 0 -45 3
-45 20 0 15 7 20 25 20 18 0 25 5 25 20 0 15 -7 20 -25 20 -18 0 -25 5 -25 20
0 13 -7 20 -20 20 -18 0 -20 -7 -20 -80z"/>
<path d="M18940 15290 c0 -33 3 -40 20 -40 17 0 20 7 20 40 0 33 -3 40 -20 40
-17 0 -20 -7 -20 -40z"/>
<path d="M19530 15290 c0 -36 -2 -40 -25 -40 -23 0 -25 -4 -25 -45 l0 -45 85
0 85 0 0 45 c0 38 -3 45 -20 45 -13 0 -20 7 -20 20 0 13 7 20 20 20 13 0 20 7
20 20 0 13 -7 20 -20 20 -13 0 -20 -7 -20 -20 0 -13 -7 -20 -20 -20 -13 0 -20
7 -20 20 0 13 -7 20 -20 20 -17 0 -20 -7 -20 -40z m40 -60 c0 -13 -7 -20 -20
-20 -13 0 -20 7 -20 20 0 13 7 20 20 20 13 0 20 -7 20 -20z"/>
</g>
</svg>
