<?xml version="1.0" standalone="no"?>
<!DOCTYPE svg PUBLIC "-//W3C//DTD SVG 20010904//EN"
 "http://www.w3.org/TR/2001/REC-SVG-20010904/DTD/svg10.dtd">
<svg version="1.0" xmlns="http://www.w3.org/2000/svg"
 width="155.000000pt" height="80.000000pt" viewBox="0 0 155.000000 80.000000"
 preserveAspectRatio="xMidYMid meet">

<g transform="translate(0.000000,80.000000) scale(0.100000,-0.100000)"
fill="#000000" stroke="none">
<path d="M235 407 c-7 -18 -17 -45 -20 -60 -6 -24 -4 -27 19 -27 19 0 30 9 44
37 l19 36 7 -36 c10 -51 23 -54 62 -16 l34 33 0 -45 c1 -39 2 -42 14 -26 10
12 15 14 18 6 6 -17 28 -2 28 20 0 9 7 26 15 37 14 18 14 17 15 -16 1 -67 28
-75 69 -20 23 32 47 41 37 14 -14 -37 -18 -64 -8 -64 10 0 42 81 42 107 0 24
-24 14 -67 -29 -45 -44 -46 -44 -58 25 -4 27 -11 37 -25 37 -10 0 -25 3 -34 6
-9 3 -32 -10 -59 -35 -24 -23 -47 -41 -50 -41 -3 0 -8 18 -12 41 -7 42 -31 62
-46 38 -6 -10 -9 -10 -9 -1 0 24 -21 12 -35 -21z"/>
<path d="M652 388 c-17 -22 -36 -98 -26 -107 15 -15 128 -26 120 -12 -4 6 -17
11 -29 11 -73 1 -92 36 -24 47 40 7 41 7 12 13 -21 3 -31 12 -33 27 -3 18 3
22 30 26 l33 4 -36 1 c-20 1 -41 -4 -47 -10z"/>
<path d="M791 341 c-11 -27 -21 -57 -21 -65 0 -29 18 -16 30 22 7 20 16 41 20
45 4 5 22 -15 40 -42 17 -28 38 -51 46 -51 12 0 44 84 44 117 0 26 -19 3 -31
-37 -7 -22 -15 -40 -20 -40 -4 0 -21 23 -39 50 -18 28 -36 50 -40 50 -4 0 -17
-22 -29 -49z"/>
<path d="M988 359 c-29 -17 -20 -36 27 -58 53 -25 60 -51 15 -51 -17 0 -41 7
-54 16 -15 9 -26 11 -30 5 -9 -14 46 -41 84 -41 39 0 70 16 70 35 0 8 -22 26
-50 40 -27 14 -50 30 -50 35 0 16 62 11 82 -7 17 -15 18 -15 18 1 0 30 -76 47
-112 25z"/>
<path d="M1135 338 c-23 -72 -30 -118 -15 -118 9 0 40 90 40 117 0 17 -19 17
-25 1z"/>
<path d="M1220 332 c20 -16 21 -21 9 -65 -6 -26 -9 -51 -5 -54 8 -9 10 -6 32
57 16 47 23 56 49 60 27 5 25 7 -19 13 -27 4 -58 7 -69 7 -18 0 -18 -1 3 -18z"/>
</g>
</svg>
